<?xml version="1.0" encoding="UTF-8"?><svg id="Logo_Top" xmlns="http://www.w3.org/2000/svg" viewBox="0 0 500 500"><defs><style>.cls-1{fill:#ccc;}.cls-2{fill:#76cbff;}.cls-3{fill:#ffb55c;}</style></defs><path class="cls-1" d="M139.51,58.63h220.98s110.49,191.37,110.49,191.37l-110.49,191.37h-220.98S29.02,250,29.02,250L139.51,58.63M139.51,33.49h-14.51l-7.26,12.57L7.26,237.43l-7.26,12.57,7.26,12.57,110.49,191.37,7.26,12.57h235.49s14.51,0,14.51,0l7.26-12.57,110.49-191.37,7.26-12.57-7.26-12.57-110.49-191.37-7.26-12.57h-235.49Z"/><path class="cls-3" d="M139.51,58.63h149.3c56.13,60.7,68.98,153.13,25.47,228.49-35.9,62.18-101.04,96.94-168.03,96.94-14.2,0-28.48-1.56-42.58-4.76L29.02,250,139.51,58.63M139.51,33.49h-14.51l-7.26,12.57L7.26,237.43l-7.26,12.57,7.26,12.57,74.65,129.29,5.5,9.52,10.72,2.43c15.75,3.57,31.95,5.38,48.13,5.38,37.78,0,75.13-9.82,108.03-28.4,33.92-19.16,62.19-47.2,81.76-81.1,12.02-20.82,20.48-43.22,25.15-66.6,4.51-22.6,5.41-45.71,2.67-68.69-2.71-22.7-8.91-44.74-18.43-65.52-9.65-21.07-22.5-40.35-38.18-57.31l-7.46-8.07h-160.29Z"/><path class="cls-2" d="M329.86,227.17c20.05,0,40.38,5.11,58.99,15.86,24.5,14.15,42.02,35.74,51.35,60.28l-79.72,138.07h-99.75c-48.79-35-64.01-101.99-33.36-155.08,21.9-37.92,61.63-59.12,102.48-59.12M329.86,202.03c-24.73,0-49.18,6.43-70.71,18.59-22.21,12.54-40.72,30.91-53.54,53.1-17.9,31-23.55,67.32-15.9,102.27,7.59,34.7,27.61,65.18,56.38,85.81l6.57,4.71h122.34l7.26-12.57,79.72-138.07,5.97-10.34-4.25-11.16c-11.68-30.7-33.8-56.66-62.28-73.11-21.78-12.58-46.53-19.22-71.56-19.22h0Z"/><path class="cls-3" d="M340.25,192.88c-.21,16.01-2.4,32.11-6.69,47.92h25.93c.61-2.56,1.18-5.14,1.7-7.73,2.65-13.27,4.04-26.71,4.2-40.2h-25.14Z"/></svg>