<?xml version="1.0" encoding="UTF-8"?><svg id="Logo_Top" xmlns="http://www.w3.org/2000/svg" viewBox="0 0 500 500"><defs><style>.cls-1{fill:#ccc;}.cls-2{fill:#76cbff;}.cls-3{fill:#ffb55c;}</style></defs><path class="cls-1" d="M362.41,55.31l112.41,194.69-112.41,194.69h-224.81L25.19,250,137.59,55.31h224.81M373.95,35.31H126.05l-5.77,10L7.87,240l-5.77,10,5.77,10,112.41,194.69,5.77,10h247.91l5.77-10,112.41-194.69,5.77-10-5.77-10-112.41-194.69-5.77-10h0Z"/><path class="cls-3" d="M137.59,55.31h153.13c9.92,10.69,18.82,22.65,26.42,35.82,54.61,94.59,22.2,215.53-72.38,270.14-31.14,17.98-65.12,26.52-98.67,26.52-14.93,0-29.78-1.69-44.24-5L25.19,250,137.59,55.31M137.59,35.31h-11.55l-5.77,10L7.87,240l-5.77,10,5.77,10,76.66,132.79,4.36,7.55,8.5,1.94c15.97,3.65,32.36,5.5,48.7,5.5,38.01,0,75.58-10.1,108.67-29.2,25.45-14.69,47.27-33.94,64.85-57.21,16.97-22.47,29.29-47.7,36.61-75.01,7.32-27.31,9.27-55.33,5.8-83.27-3.59-28.94-12.86-56.52-27.56-81.97-8.21-14.21-17.99-27.48-29.08-39.43l-5.93-6.39h-161.86Z"/><path class="cls-2" d="M333.82,223.43c41.05,0,80.98,21.31,102.98,59.41,3.41,5.91,6.25,12,8.55,18.19l-82.94,143.66h-88.6c-17.19-10.06-32.08-24.59-42.75-43.07-32.8-56.81-13.34-129.46,43.48-162.26,18.71-10.8,39.13-15.93,59.28-15.93M333.82,203.43c-24.23,0-48.19,6.44-69.28,18.61-32.1,18.54-55.07,48.46-64.66,84.27-9.59,35.81-4.67,73.21,13.86,105.31,12.02,20.83,29.3,38.23,49.96,50.33l4.68,2.74h94.02s11.55,0,11.55,0l5.77-10,82.94-143.66,4.7-8.14-3.27-8.82c-2.72-7.33-6.08-14.47-9.98-21.23-12.41-21.49-30.33-39.26-51.83-51.41-20.85-11.78-44.53-18-68.47-18h0Z"/></svg>