<?xml version="1.0" encoding="UTF-8"?><svg id="Logo_Bottom" xmlns="http://www.w3.org/2000/svg" viewBox="0 0 500 500"><defs><style>.cls-1{fill:#ccc;}.cls-2{fill:#666;}.cls-3{fill:#76cbff;}.cls-4{fill:#ffb55c;}</style></defs><path class="cls-2" d="M468.36,230.29l-99.36-172.09-6.52-11.3h-224.81l-6.52,11.3L31.78,230.29l-6.52,11.3,6.52,11.3,99.36,172.09,6.52,11.3h224.81l6.52-11.3,99.36-172.09,6.52-11.3-6.52-11.3ZM150.72,69.5h134.25c31.1,33.63,47.4,78.1,46.2,123.14-.02.87-.04,1.74-.07,2.61-.05,1.18-.13,2.37-.2,3.55-2.99-.21-5.99-.34-9-.34-22.24,0-44.22,5.78-63.59,16.72-19.97,11.28-36.62,27.79-48.14,47.75-16.09,27.88-21.17,60.54-14.3,91.96.2.89.43,1.77.65,2.66-12.98,3.03-26.31,4.59-39.73,4.59s-25.61-1.41-38.29-4.28l-67.13-116.27,99.36-172.09ZM326.53,228.17c-.21.88-.45,1.76-.67,2.64-3.86,15.12-9.79,29.98-17.98,44.16-21.02,36.41-53.2,62.35-89.71,76.03-5.76-25.22-2.39-52.59,11.57-76.77,19.69-34.1,55.42-53.17,92.16-53.17,2.04,0,4.08.08,6.13.2-.08.41-.15.81-.23,1.22-.39,1.9-.8,3.8-1.26,5.69ZM133.17,383.29c7.83.95,15.72,1.44,23.61,1.44,15.85,0,31.62-1.95,46.93-5.7,5.54,12.7,13.08,24.38,22.34,34.64h-75.34l-17.55-30.39ZM259.73,413.68c-15.18-10.89-26.75-25.23-34.24-41.3,9.79-3.63,19.31-8.03,28.44-13.19,30.5-17.23,55.92-42.45,73.53-72.93,9.61-16.65,16.68-34.43,21.08-52.94h0c.55-2.31,1.06-4.62,1.53-6.95.09-.46.16-.92.25-1.38,8.43,2.35,16.7,5.75,24.62,10.33,22.03,12.72,37.79,32.14,46.18,54.2l-71.68,124.16h-89.7ZM434.91,265.63c-11.29-20.65-28.13-38.03-48.67-49.88-10.35-5.97-21.45-10.41-32.92-13.32.04-.58.06-1.16.1-1.74.06-.88.11-1.76.15-2.63.11-2.1.18-4.21.22-6.31,0-.51.05-1.01.05-1.52h-.02c.1-8.53-.33-17.09-1.35-25.62-2.44-20.41-8.01-40.24-16.57-58.92-5.89-12.86-13.14-24.96-21.57-36.19h35.11l99.36,172.09-13.88,24.04Z"/><path class="cls-1" d="M150.72,69.5h198.72s99.36,172.09,99.36,172.09l-99.36,172.09h-198.72S51.36,241.59,51.36,241.59l99.36-172.09M150.72,46.9h-13.05l-6.52,11.3L31.78,230.29l-6.52,11.3,6.52,11.3,99.36,172.09,6.52,11.3h211.76s13.05,0,13.05,0l6.52-11.3,99.36-172.09,6.52-11.3-6.52-11.3-99.36-172.09-6.52-11.3h-211.76Z"/><path class="cls-4" d="M150.72,69.5h134.25c50.47,54.58,62.03,137.7,22.91,205.47-32.28,55.92-90.86,87.17-151.1,87.17-12.77,0-25.61-1.41-38.29-4.28l-67.13-116.27,99.36-172.09M150.72,46.9h-13.05l-6.52,11.3L31.78,230.29l-6.52,11.3,6.52,11.3,67.13,116.27,4.94,8.56,9.64,2.18c14.17,3.21,28.73,4.84,43.28,4.84,33.97,0,67.57-8.83,97.15-25.54,30.5-17.23,55.92-42.45,73.53-72.93,10.81-18.72,18.42-38.87,22.61-59.89,4.06-20.33,4.87-41.11,2.4-61.77-2.44-20.41-8.01-40.24-16.57-58.92-8.68-18.95-20.23-36.29-34.33-51.53l-6.71-7.26h-144.14Z"/><path class="cls-3" d="M321.89,221.06c18.03,0,36.31,4.6,53.05,14.26,22.04,12.72,37.79,32.14,46.18,54.2l-71.68,124.16h-89.7c-43.88-31.47-57.56-91.71-30-139.46,19.69-34.1,55.42-53.17,92.16-53.17M321.89,198.46c-22.24,0-44.22,5.78-63.59,16.72-19.97,11.28-36.62,27.79-48.14,47.75-16.09,27.88-21.17,60.54-14.3,91.96,6.83,31.21,24.83,58.61,50.7,77.16l5.91,4.24h110.02l6.52-11.3,71.68-124.16,5.37-9.3-3.82-10.04c-10.5-27.61-30.39-50.96-56-65.74-19.59-11.31-41.84-17.29-64.35-17.29h0Z"/><path class="cls-4" d="M331.24,190.23c-.19,14.4-2.16,28.88-6.02,43.1h23.32c.55-2.31,1.06-4.62,1.53-6.95,2.38-11.93,3.64-24.02,3.77-36.15h-22.6Z"/></svg>